HIERARCHY
ROOT root
{
	OFFSET	0	13.1	24.9
	CHANNELS 6  Xposition Yposition Zposition Xrotation Yrotation Zrotation
	JOINT spine_1
	{
		OFFSET	0	9.99999	0
		CHANNELS 3  Xrotation Yrotation Zrotation
		JOINT spine_2
		{
			OFFSET	0	112	-10
			CHANNELS 3  Xrotation Yrotation Zrotation
			JOINT spine_3
			{
				OFFSET	0	206.5	19.3
				CHANNELS 3  Xrotation Yrotation Zrotation
				JOINT spine_4
				{
					OFFSET	0	110.4	14.6
					CHANNELS 3  Xrotation Yrotation Zrotation
					JOINT neck_1
					{
						OFFSET	0	71.8	-50.3
						CHANNELS 3  Xrotation Yrotation Zrotation
						JOINT neck_2
						{
							OFFSET	0	86.2	-25.8
							CHANNELS 3  Xrotation Yrotation Zrotation
							JOINT head_ee
							{
								OFFSET	0	179.8	-8.7
								CHANNELS 3  Xrotation Yrotation Zrotation
								End Site
								{
									OFFSET	1	0	0
								}
							}
						}
					}
					JOINT left_clavicle
					{
						OFFSET	-43.2	22.4	-70.8
						CHANNELS 3  Xrotation Yrotation Zrotation
						JOINT left_shoulder
						{
							OFFSET	-93.9	-5.79999	48.7
							CHANNELS 3  Xrotation Yrotation Zrotation
							JOINT left_elbow
							{
								OFFSET	-291.4	-30.8	15.2
								CHANNELS 3  Xrotation Yrotation Zrotation
								JOINT left_lowarm_twist
								{
									OFFSET	-110.7	-3.89999	13.6
									CHANNELS 3  Xrotation Yrotation Zrotation
									JOINT left_hand
									{
										OFFSET	-110.7	-3.89999	13.6
										CHANNELS 3  Xrotation Yrotation Zrotation
										JOINT left_ee
										{
											OFFSET	-80.8	-5.10001	12.1
											CHANNELS 3  Xrotation Yrotation Zrotation
											End Site
											{
												OFFSET	1	0	0
											}
										}
									}
								}
							}
						}
					}
					JOINT right_clavicle
					{
						OFFSET	43.2	22.4	-70.8
						CHANNELS 3  Xrotation Yrotation Zrotation
						JOINT right_shoulder
						{
							OFFSET	93.9	-5.79999	48.7
							CHANNELS 3  Xrotation Yrotation Zrotation
							JOINT right_elbow
							{
								OFFSET	291.4	-30.8	15.2
								CHANNELS 3  Xrotation Yrotation Zrotation
								JOINT right_lowarm_twist
								{
									OFFSET	110.7	-3.89999	13.6
									CHANNELS 3  Xrotation Yrotation Zrotation
									JOINT right_hand
									{
										OFFSET	110.7	-3.89999	13.6
										CHANNELS 3  Xrotation Yrotation Zrotation
										JOINT right_ee
										{
											OFFSET	80.8	-5.10001	12.1
											CHANNELS 3  Xrotation Yrotation Zrotation
											End Site
											{
												OFFSET	1	0	0
											}
										}
									}
								}
							}
						}
					}
				}
			}
		}
	}
	JOINT left_hip
	{
		OFFSET	-82.8	-127.5	0.300001
		CHANNELS 3  Xrotation Yrotation Zrotation
		JOINT left_knee
		{
			OFFSET	-28.2	-396.7	2.2
			CHANNELS 3  Xrotation Yrotation Zrotation
			JOINT left_ankle
			{
				OFFSET	-11.7	-411.3	35.4
				CHANNELS 3  Xrotation Yrotation Zrotation
				JOINT left_toes
				{
					OFFSET	0	-60	-88.6
					CHANNELS 3  Xrotation Yrotation Zrotation
					JOINT left_foot_ee
					{
						OFFSET	-22.5	-16.5	-42.2
						CHANNELS 3  Xrotation Yrotation Zrotation
						End Site
						{
							OFFSET	1	0	0
						}
					}
				}
			}
		}
	}
	JOINT right_hip
	{
		OFFSET	82.8	-127.5	0.300001
		CHANNELS 3  Xrotation Yrotation Zrotation
		JOINT right_knee
		{
			OFFSET	28.2	-396.7	2.2
			CHANNELS 3  Xrotation Yrotation Zrotation
			JOINT right_ankle
			{
				OFFSET	11.7	-411.3	35.4
				CHANNELS 3  Xrotation Yrotation Zrotation
				JOINT right_toes
				{
					OFFSET	0	-60	-88.6
					CHANNELS 3  Xrotation Yrotation Zrotation
					JOINT right_foot_ee
					{
						OFFSET	22.5	-16.5	-42.2
						CHANNELS 3  Xrotation Yrotation Zrotation
						End Site
						{
							OFFSET	1	0	0
						}
					}
				}
			}
		}
	}
}
MOTION
Frames: 15
Frame Time: 0.02
2800.94 716.97 -1473.77 12.2371059241 53.6361435426 -4.552278773 -3.09098 -0.530247 -3.04844 -3.08588 -0.335287 -3.07596 -3.06072 0.482869 -3.05629 -3.07375 -0.00563532 -3.09416 -19.7714 12.7156 5.18979 -20.3899 21.8698 10.2327 -0.0 0.0 -0.0 8.83652 21.8238 15.353 1.40725 -19.7723 58.946 6.45207 -72.5923 4.74116 -60.2117 -5.3091 5.10772 -3.91929 2.05804 -26.0823 -0.0 0.0 -0.0 2.80163 9.05427 -4.69803 -23.5212 20.9403 -64.4926 0.578321 15.9863 -0.0812079 -17.0183 0.899867 -1.9733 0.952937 -26.4571 -15.9058 0.0 0.0 0.0 -17.1179 23.7074 -2.58843 -17.6801 0.316039 2.68402 40.2215 -0.501299 -4.89878 -21.7942 0.0 0.0 -0.0 0.0 -0.0 27.653 30.8339 -13.8363 -5.97727 -0.199547 -0.895216 -16.0261 -6.09266 -2.40673 21.1092 -0.0 -0.0 0.0 0.0 0.0 
2742.56761073 729.897 -1520.60567515 13.2140801492 56.9072152586 -6.70552027728 -2.98022 -0.466115 -2.53692 -2.97669 -0.303794 -2.56142 -2.9582 0.373692 -2.55216 -2.96728 -0.0339247 -2.57913 -20.9055 13.2281 5.86296 -21.6256 22.6499 11.3519 -0.0 0.0 -0.0 7.83912 17.3845 14.3128 -3.86764 -15.9279 59.5711 5.09728 -68.3695 3.46336 -65.4663 -5.96933 5.23858 -3.02212 -1.56854 -21.4248 -0.0 0.0 -0.0 4.85342 8.67402 -8.96208 -21.4538 24.2918 -64.4701 0.475307 13.2494 -0.0552028 -13.3718 0.658142 -1.5741 1.79488 -29.3702 -21.5917 0.0 0.0 0.0 -18.5168 31.692 -4.47013 -17.301 0.318005 2.62588 28.9649 0.591203 -3.79477 -19.771 0.0 0.0 -0.0 0.0 -0.0 28.4029 30.0033 -15.483 -18.0317 -0.313873 -2.73792 -10.4695 -4.76114 -1.56549 26.7106 -0.0 -0.0 0.0 0.0 0.0 
2735.96954489 736.402 -1528.17761917 12.5299482102 56.7529897238 -6.59856128453 -2.88216 -0.406629 -2.38363 -2.87903 -0.254173 -2.40466 -2.86418 0.376871 -2.38852 -2.87214 -0.00496573 -2.41804 -24.0341 13.09 8.18328 -24.7622 21.6961 14.1353 -0.0 0.0 -0.0 7.65762 17.1737 14.0374 -5.38222 -16.8082 59.1926 4.63481 -66.4422 3.03632 -66.1963 -6.06186 5.25193 -3.06784 -2.71367 -22.3245 -0.0 0.0 -0.0 5.20674 10.1842 -9.60741 -20.4227 24.6385 -65.2879 0.464907 12.9694 -0.0528439 -13.3113 0.654347 -1.56735 1.82049 -29.553 -21.7835 0.0 0.0 0.0 -17.997 32.0487 -4.4801 -16.7047 0.320317 2.53443 26.4925 -0.349442 -3.52683 -18.9759 0.0 0.0 -0.0 0.0 -0.0 28.3291 29.9151 -15.3091 -19.6699 -0.299421 -2.98885 -8.74049 -5.10546 -1.30328 27.7321 -0.0 -0.0 0.0 0.0 0.0 
2732.11257359 737.25 -1534.66346289 11.1672789696 55.7171002181 -5.27176475064 -2.77657 -0.174757 -2.48147 -2.77314 -0.0165501 -2.48756 -2.76853 0.624053 -2.40812 -2.77655 0.236028 -2.4764 -21.1561 14.2871 8.03496 -21.8777 23.6798 13.8832 -0.0 0.0 -0.0 7.76699 17.3437 14.1995 -5.79254 -16.2157 59.4677 4.20152 -64.3178 2.64235 -67.7731 -6.2622 5.27672 -2.45917 -3.94189 -18.5446 -0.0 0.0 -0.0 5.91733 10.1862 -11.0966 -20.9338 26.2474 -63.7675 0.456909 12.7536 -0.0510636 -13.5677 0.670479 -1.59593 1.64721 -29.4691 -20.7534 0.0 0.0 0.0 -13.4864 32.3698 -7.31206 -21.685 0.271811 3.2968 21.0061 1.74504 -2.86678 -18.9753 0.0 0.0 -0.0 0.0 -0.0 27.6476 29.8097 -15.2651 -18.2361 -0.312461 -2.76924 -8.16583 -1.82095 -1.22289 26.6887 -0.0 -0.0 0.0 0.0 0.0 
2709.47942223 745.878 -1546.13701789 11.3665036507 58.4559308525 -6.02584811208 -2.86566 -0.199114 -2.4749 -2.86226 -0.0412761 -2.48254 -2.85647 0.602546 -2.40871 -2.8645 0.214696 -2.47359 -18.9842 15.6006 6.67768 -19.8421 26.5766 12.7141 -0.0 0.0 -0.0 7.73452 19.2916 13.9595 -8.48547 -15.2631 60.6489 3.89074 -62.5603 2.36434 -67.7339 -6.25722 5.27617 -1.4728 -1.55931 -10.5908 -0.0 0.0 -0.0 6.67694 10.1627 -12.6976 -20.2569 27.2002 -60.5011 0.534499 14.8304 -0.0695639 -12.2978 0.591858 -1.45371 1.53757 -27.8563 -19.7122 0.0 0.0 0.0 -11.5535 33.3813 -9.17724 -24.3191 0.219421 3.69758 13.7715 2.82181 -1.93738 -17.8801 0.0 0.0 -0.0 0.0 -0.0 26.6005 28.8392 -15.0984 -19.9314 -0.29645 -3.02886 -10.7219 -6.66162 -1.60098 26.7021 -0.0 -0.0 0.0 0.0 0.0 
2688.46761968 748.367 -1557.81871783 14.528458507 58.9705541961 -8.10269387963 -3.27973 -0.115508 -2.56622 -3.27607 0.0479663 -2.56837 -3.27379 0.729034 -2.46326 -3.28211 0.330991 -2.54742 -15.8026 16.4369 5.41879 -16.5541 28.4037 11.0326 -0.0 0.0 -0.0 7.82369 20.5004 13.9717 -10.1671 -14.9407 61.6268 3.52156 -60.1621 2.04025 -67.5404 -6.2326 5.27341 -0.864609 0.297494 -5.65284 -0.0 0.0 -0.0 7.39498 10.6081 -14.2013 -21.8309 29.3582 -57.5588 0.637338 17.522 -0.0982217 -12.2171 0.586967 -1.44462 1.54604 -24.6908 -18.9157 0.0 0.0 0.0 -4.88585 31.1152 -17.2831 -37.5848 -0.320308 5.65719 3.50288 1.8888 -0.511191 -19.4696 0.0 0.0 -0.0 0.0 -0.0 21.7843 28.5798 -15.7544 -16.9885 -0.319335 -2.57796 -7.79135 -6.04413 -1.15904 26.3746 -0.0 -0.0 0.0 0.0 0.0 
2689.15726339 748.367 -1558.73377523 14.3364512805 58.5177289531 -7.87808876802 -3.27973 -0.115508 -2.56622 -3.27607 0.0479663 -2.56837 -3.27379 0.729034 -2.46326 -3.28211 0.330991 -2.54742 -15.8026 16.4369 5.41879 -16.5541 28.4037 11.0326 -0.0 0.0 -0.0 7.82369 20.5004 13.9717 -10.1671 -14.9407 61.6268 3.52156 -60.1621 2.04025 -67.5404 -6.2326 5.27341 -0.864609 0.297494 -5.65284 -0.0 0.0 -0.0 7.39498 10.6081 -14.2013 -21.8309 29.3582 -57.5588 0.637338 17.522 -0.0982217 -12.2171 0.586967 -1.44462 1.54604 -24.6908 -18.9157 0.0 0.0 0.0 -4.88585 31.1152 -17.2831 -37.5848 -0.320308 5.65719 3.50288 1.8888 -0.511191 -19.4696 0.0 0.0 -0.0 0.0 -0.0 21.7843 28.5798 -15.7544 -16.9885 -0.319335 -2.57796 -7.79135 -6.04413 -1.15904 26.3746 -0.0 -0.0 0.0 0.0 0.0 
2679.34452217 750.016 -1563.15314053 14.4045237543 58.376793851 -7.79604128191 -3.36144 0.0359313 -2.45419 -3.35811 0.191978 -2.44694 -3.3626 0.83923 -2.30661 -3.36972 0.464525 -2.41013 -13.4248 17.9786 5.12493 -14.1001 31.1483 10.6417 -0.0 0.0 -0.0 8.30822 20.3948 14.7316 -10.9583 -13.4088 61.1004 3.13227 -57.1867 1.7076 -66.1566 -6.05682 5.25124 -0.826968 1.18909 -5.00988 -0.0 0.0 -0.0 7.35695 10.5358 -14.1233 -21.4372 30.1848 -55.9727 0.785952 21.2727 -0.147606 -12.3539 0.59526 -1.46003 1.49502 -23.9789 -18.4058 0.0 0.0 0.0 -3.57867 28.1457 -17.3948 -40.7725 -0.516646 6.10608 -0.0507385 5.22445 0.00743767 -21.1397 0.0 0.0 -0.0 0.0 -0.0 20.3167 28.4372 -15.7336 -15.3521 -0.322033 -2.32691 -7.41978 -6.30629 -1.10289 21.2605 -0.0 -0.0 0.0 0.0 0.0 
2680.14075022 750.016 -1564.2263281 14.2029038038 57.8851770118 -7.55863619313 -3.36144 0.0359313 -2.45419 -3.35811 0.191978 -2.44694 -3.3626 0.83923 -2.30661 -3.36972 0.464525 -2.41013 -13.4248 17.9786 5.12493 -14.1001 31.1483 10.6417 -0.0 0.0 -0.0 8.30822 20.3948 14.7316 -10.9583 -13.4088 61.1004 3.13227 -57.1867 1.7076 -66.1566 -6.05682 5.25124 -0.826968 1.18909 -5.00988 -0.0 0.0 -0.0 7.35695 10.5358 -14.1233 -21.4372 30.1848 -55.9727 0.785952 21.2727 -0.147606 -12.3539 0.59526 -1.46003 1.49502 -23.9789 -18.4058 0.0 0.0 0.0 -3.57867 28.1457 -17.3948 -40.7725 -0.516646 6.10608 -0.0507385 5.22445 0.00743767 -21.1397 0.0 0.0 -0.0 0.0 -0.0 20.3167 28.4372 -15.7336 -15.3521 -0.322033 -2.32691 -7.41978 -6.30629 -1.10289 21.2605 -0.0 -0.0 0.0 0.0 0.0 
2668.34800789 754.9 -1570.49605964 15.1560395617 57.752793015 -8.75379426351 -3.54126 0.112602 -2.24823 -3.53848 0.255398 -2.23651 -3.54545 0.850709 -2.08418 -3.55115 0.510961 -2.19231 -13.3935 18.4166 5.90088 -14.0568 31.5085 11.5013 -0.0 0.0 -0.0 8.13977 20.642 14.4417 -12.9571 -12.9789 60.9071 2.92898 -55.4139 1.53844 -65.2995 -5.94821 5.23536 -0.75098 1.69555 -4.28138 -0.0 0.0 -0.0 7.56688 13.3033 -14.449 -19.7946 30.7723 -55.7422 0.865421 23.2048 -0.177686 -11.4282 0.539849 -1.35534 1.5617 -22.9029 -18.5055 0.0 0.0 0.0 -2.20692 25.5939 -17.4446 -43.3193 -0.691332 6.45659 -5.63052 6.77792 0.834121 -23.2562 0.0 0.0 -0.0 0.0 -0.0 17.0004 28.7053 -15.3567 -13.1341 -0.314246 -1.98671 -1.45272 -7.58929 -0.213331 18.6584 -0.0 -0.0 0.0 0.0 0.0 
2658.32138486 755.522 -1576.33051198 14.7513283297 57.9351296505 -8.64241531915 -3.64367 0.0782753 -2.11006 -3.64121 0.212355 -2.10081 -3.64623 0.775965 -1.96382 -3.65132 0.456148 -2.06167 -12.9587 19.106 6.17874 -13.6163 32.5743 11.8641 -0.0 0.0 -0.0 8.16357 22.0512 14.3065 -14.371 -11.9673 60.8735 2.70115 -53.2181 1.35336 -64.3802 -5.83197 5.21653 -0.695509 2.16683 -3.70683 -0.0 0.0 -0.0 7.8675 14.158 -15.0554 -18.8496 31.2129 -55.1417 0.919572 24.4903 -0.199581 -11.3857 0.537348 -1.35052 1.47638 -22.737 -17.9326 0.0 0.0 0.0 -1.24631 23.7695 -17.1966 -45.0036 -0.815379 6.68407 -9.48535 7.63356 1.41335 -24.7278 0.0 0.0 -0.0 0.0 -0.0 15.1346 28.5443 -14.9678 -11.0702 -0.295178 -1.67062 2.98936 -8.55669 0.434171 16.9966 -0.0 -0.0 0.0 0.0 0.0 
2661.71852064 755.522 -1580.89659653 14.0396190095 56.1370362178 -7.79425501322 -3.64367 0.0782753 -2.11006 -3.64121 0.212355 -2.10081 -3.64623 0.775965 -1.96382 -3.65132 0.456148 -2.06167 -12.9587 19.106 6.17874 -13.6163 32.5743 11.8641 -0.0 0.0 -0.0 8.16357 22.0512 14.3065 -14.371 -11.9673 60.8735 2.70115 -53.2181 1.35336 -64.3802 -5.83197 5.21653 -0.695509 2.16683 -3.70683 -0.0 0.0 -0.0 7.8675 14.158 -15.0554 -18.8496 31.2129 -55.1417 0.919572 24.4903 -0.199581 -11.3857 0.537348 -1.35052 1.47638 -22.737 -17.9326 0.0 0.0 0.0 -1.24631 23.7695 -17.1966 -45.0036 -0.815379 6.68407 -9.48535 7.63356 1.41335 -24.7278 0.0 0.0 -0.0 0.0 -0.0 15.1346 28.5443 -14.9678 -11.0702 -0.295178 -1.67062 2.98936 -8.55669 0.434171 16.9966 -0.0 -0.0 0.0 0.0 0.0 
2653.92080204 760.003 -1591.33703802 14.6539089243 56.1648465524 -8.16153437167 -3.70465 0.0137609 -2.01407 -3.7024 0.141867 -2.00912 -3.70468 0.685063 -1.89408 -3.70949 0.377393 -1.97846 -12.4792 19.4937 6.21126 -13.1063 33.1981 11.8714 -0.0 0.0 -0.0 7.88511 22.2688 13.8646 -15.4508 -11.5131 60.7922 2.49982 -51.0698 1.19437 -63.3561 -5.70284 5.19334 -0.584345 2.49857 -2.82467 -0.0 0.0 -0.0 8.09745 15.2954 -15.4943 -17.9559 31.6245 -55.0097 0.961301 25.4634 -0.217202 -11.1553 0.523841 -1.32432 1.40042 -22.217 -17.3116 0.0 0.0 0.0 0.381749 22.1162 -18.4423 -45.6364 -0.86372 6.7686 -12.2499 8.03246 1.83144 -26.8837 0.0 0.0 -0.0 0.0 -0.0 13.5086 28.7391 -15.3633 -9.56702 -0.274131 -1.44094 6.03028 -9.15886 0.868382 15.7063 -0.0 -0.0 0.0 0.0 0.0 
2646.56074413 761.471 -1603.64469291 15.0604322593 55.8110567702 -8.3452382023 -3.67427 -0.0598026 -1.8411 -3.67239 0.0574524 -1.84117 -3.67184 0.556919 -1.75589 -3.67603 0.272668 -1.82178 -11.5606 20.5713 8.05319 -12.0114 33.8809 13.6109 -0.0 0.0 -0.0 7.66621 21.1136 13.6657 -16.5107 -11.7689 60.3908 2.09818 -46.1005 0.89288 -60.9366 -5.39946 5.12938 -0.615531 3.77558 -2.47928 -0.0 0.0 -0.0 8.39965 16.3029 -16.0973 -16.1402 31.1065 -55.2919 1.0871 28.3024 -0.274102 -10.2848 0.47376 -1.22484 1.02852 -21.5838 -14.8393 0.0 0.0 0.0 1.77204 21.3178 -19.214 -46.7883 -0.9541 6.92109 -13.4448 10.5272 2.01347 -30.0202 0.0 0.0 -0.0 0.0 -0.0 12.1594 28.6951 -15.7572 -9.42924 -0.2719 -1.41992 4.17298 -9.14619 0.604174 11.2795 -0.0 -0.0 0.0 0.0 0.0 
2639.65163004 761.308 -1609.44182691 15.4209621552 55.8590482804 -8.84961548933 -3.56566 -0.116392 -1.62694 -3.56419 -0.0126435 -1.63105 -3.56187 0.429149 -1.57365 -3.56529 0.175269 -1.62166 -11.177 20.99 8.67953 -11.5543 34.1768 14.1896 -0.0 0.0 -0.0 7.84273 20.6892 13.9804 -16.5606 -11.0442 60.7502 1.72585 -40.5248 0.637164 -61.1633 -5.42777 5.13592 -0.932901 11.0687 -1.36563 -0.0 0.0 -0.0 8.58476 14.3282 -16.607 -12.6212 29.7173 -55.8975 1.24331 31.6277 -0.35216 -12.1855 0.585058 -1.44106 0.972568 -21.8073 -14.5713 0.0 0.0 0.0 5.46892 26.1731 -22.7573 -46.7327 -0.949666 6.91377 -4.87738 6.12877 0.72185 -35.5446 0.0 0.0 -0.0 0.0 -0.0 9.79546 27.579 -15.2892 -7.09207 -0.22637 -1.06419 2.69921 -10.5065 0.392622 9.55929 -0.0 -0.0 0.0 0.0 0.0 
